<svg width="192" height="192" viewBox="0 0 192 192" xmlns="http://www.w3.org/2000/svg">
  <rect width="192" height="192" rx="20" fill="#4F46E5"/>
  <rect x="20" y="20" width="152" height="152" rx="8" fill="white"/>
  <!-- QR code pattern -->
  <rect x="32" y="32" width="8" height="8" fill="#4F46E5"/>
  <rect x="48" y="32" width="8" height="8" fill="#4F46E5"/>
  <rect x="64" y="32" width="8" height="8" fill="#4F46E5"/>
  <rect x="80" y="32" width="8" height="8" fill="#4F46E5"/>
  <rect x="96" y="32" width="8" height="8" fill="#4F46E5"/>
  <rect x="112" y="32" width="8" height="8" fill="#4F46E5"/>
  <rect x="128" y="32" width="8" height="8" fill="#4F46E5"/>
  <rect x="144" y="32" width="8" height="8" fill="#4F46E5"/>
  
  <rect x="32" y="48" width="8" height="8" fill="#4F46E5"/>
  <rect x="48" y="48" width="8" height="8" fill="#4F46E5"/>
  <rect x="80" y="48" width="8" height="8" fill="#4F46E5"/>
  <rect x="112" y="48" width="8" height="8" fill="#4F46E5"/>
  <rect x="144" y="48" width="8" height="8" fill="#4F46E5"/>
  
  <rect x="32" y="64" width="8" height="8" fill="#4F46E5"/>
  <rect x="64" y="64" width="8" height="8" fill="#4F46E5"/>
  <rect x="96" y="64" width="8" height="8" fill="#4F46E5"/>
  <rect x="128" y="64" width="8" height="8" fill="#4F46E5"/>
  <rect x="144" y="64" width="8" height="8" fill="#4F46E5"/>
  
  <rect x="32" y="80" width="8" height="8" fill="#4F46E5"/>
  <rect x="48" y="80" width="8" height="8" fill="#4F46E5"/>
  <rect x="64" y="80" width="8" height="8" fill="#4F46E5"/>
  <rect x="96" y="80" width="8" height="8" fill="#4F46E5"/>
  <rect x="128" y="80" width="8" height="8" fill="#4F46E5"/>
  <rect x="144" y="80" width="8" height="8" fill="#4F46E5"/>
  
  <rect x="32" y="96" width="8" height="8" fill="#4F46E5"/>
  <rect x="64" y="96" width="8" height="8" fill="#4F46E5"/>
  <rect x="80" y="96" width="8" height="8" fill="#4F46E5"/>
  <rect x="112" y="96" width="8" height="8" fill="#4F46E5"/>
  <rect x="144" y="96" width="8" height="8" fill="#4F46E5"/>
  
  <rect x="32" y="112" width="8" height="8" fill="#4F46E5"/>
  <rect x="48" y="112" width="8" height="8" fill="#4F46E5"/>
  <rect x="80" y="112" width="8" height="8" fill="#4F46E5"/>
  <rect x="96" y="112" width="8" height="8" fill="#4F46E5"/>
  <rect x="128" y="112" width="8" height="8" fill="#4F46E5"/>
  <rect x="144" y="112" width="8" height="8" fill="#4F46E5"/>
  
  <rect x="32" y="128" width="8" height="8" fill="#4F46E5"/>
  <rect x="64" y="128" width="8" height="8" fill="#4F46E5"/>
  <rect x="96" y="128" width="8" height="8" fill="#4F46E5"/>
  <rect x="112" y="128" width="8" height="8" fill="#4F46E5"/>
  <rect x="144" y="128" width="8" height="8" fill="#4F46E5"/>
  
  <rect x="32" y="144" width="8" height="8" fill="#4F46E5"/>
  <rect x="48" y="144" width="8" height="8" fill="#4F46E5"/>
  <rect x="64" y="144" width="8" height="8" fill="#4F46E5"/>
  <rect x="80" y="144" width="8" height="8" fill="#4F46E5"/>
  <rect x="96" y="144" width="8" height="8" fill="#4F46E5"/>
  <rect x="112" y="144" width="8" height="8" fill="#4F46E5"/>
  <rect x="128" y="144" width="8" height="8" fill="#4F46E5"/>
  <rect x="144" y="144" width="8" height="8" fill="#4F46E5"/>
  
  <!-- Corner markers -->
  <rect x="32" y="32" width="24" height="24" fill="none" stroke="#4F46E5" stroke-width="2"/>
  <rect x="136" y="32" width="24" height="24" fill="none" stroke="#4F46E5" stroke-width="2"/>
  <rect x="32" y="136" width="24" height="24" fill="none" stroke="#4F46E5" stroke-width="2"/>
  
  <rect x="36" y="36" width="16" height="16" fill="#4F46E5"/>
  <rect x="140" y="36" width="16" height="16" fill="#4F46E5"/>
  <rect x="36" y="140" width="16" height="16" fill="#4F46E5"/>
</svg>