<svg width="512" height="512" viewBox="0 0 512 512" xmlns="http://www.w3.org/2000/svg">
  <rect width="512" height="512" rx="64" fill="#4F46E5"/>
  <rect x="64" y="64" width="384" height="384" rx="24" fill="white"/>
  
  <!-- QR code pattern scaled for 512x512 -->
  <g transform="translate(80, 80)">
    <!-- Top row -->
    <rect x="0" y="0" width="24" height="24" fill="#4F46E5"/>
    <rect x="48" y="0" width="24" height="24" fill="#4F46E5"/>
    <rect x="96" y="0" width="24" height="24" fill="#4F46E5"/>
    <rect x="144" y="0" width="24" height="24" fill="#4F46E5"/>
    <rect x="192" y="0" width="24" height="24" fill="#4F46E5"/>
    <rect x="240" y="0" width="24" height="24" fill="#4F46E5"/>
    <rect x="288" y="0" width="24" height="24" fill="#4F46E5"/>
    <rect x="336" y="0" width="24" height="24" fill="#4F46E5"/>
    
    <!-- Second row -->
    <rect x="0" y="48" width="24" height="24" fill="#4F46E5"/>
    <rect x="48" y="48" width="24" height="24" fill="#4F46E5"/>
    <rect x="144" y="48" width="24" height="24" fill="#4F46E5"/>
    <rect x="240" y="48" width="24" height="24" fill="#4F46E5"/>
    <rect x="336" y="48" width="24" height="24" fill="#4F46E5"/>
    
    <!-- Third row -->
    <rect x="0" y="96" width="24" height="24" fill="#4F46E5"/>
    <rect x="96" y="96" width="24" height="24" fill="#4F46E5"/>
    <rect x="192" y="96" width="24" height="24" fill="#4F46E5"/>
    <rect x="288" y="96" width="24" height="24" fill="#4F46E5"/>
    <rect x="336" y="96" width="24" height="24" fill="#4F46E5"/>
    
    <!-- Fourth row -->
    <rect x="0" y="144" width="24" height="24" fill="#4F46E5"/>
    <rect x="48" y="144" width="24" height="24" fill="#4F46E5"/>
    <rect x="96" y="144" width="24" height="24" fill="#4F46E5"/>
    <rect x="192" y="144" width="24" height="24" fill="#4F46E5"/>
    <rect x="288" y="144" width="24" height="24" fill="#4F46E5"/>
    <rect x="336" y="144" width="24" height="24" fill="#4F46E5"/>
    
    <!-- Fifth row -->
    <rect x="0" y="192" width="24" height="24" fill="#4F46E5"/>
    <rect x="96" y="192" width="24" height="24" fill="#4F46E5"/>
    <rect x="144" y="192" width="24" height="24" fill="#4F46E5"/>
    <rect x="240" y="192" width="24" height="24" fill="#4F46E5"/>
    <rect x="336" y="192" width="24" height="24" fill="#4F46E5"/>
    
    <!-- Sixth row -->
    <rect x="0" y="240" width="24" height="24" fill="#4F46E5"/>
    <rect x="48" y="240" width="24" height="24" fill="#4F46E5"/>
    <rect x="144" y="240" width="24" height="24" fill="#4F46E5"/>
    <rect x="192" y="240" width="24" height="24" fill="#4F46E5"/>
    <rect x="288" y="240" width="24" height="24" fill="#4F46E5"/>
    <rect x="336" y="240" width="24" height="24" fill="#4F46E5"/>
    
    <!-- Seventh row -->
    <rect x="0" y="288" width="24" height="24" fill="#4F46E5"/>
    <rect x="96" y="288" width="24" height="24" fill="#4F46E5"/>
    <rect x="192" y="288" width="24" height="24" fill="#4F46E5"/>
    <rect x="240" y="288" width="24" height="24" fill="#4F46E5"/>
    <rect x="336" y="288" width="24" height="24" fill="#4F46E5"/>
    
    <!-- Bottom row -->
    <rect x="0" y="336" width="24" height="24" fill="#4F46E5"/>
    <rect x="48" y="336" width="24" height="24" fill="#4F46E5"/>
    <rect x="96" y="336" width="24" height="24" fill="#4F46E5"/>
    <rect x="144" y="336" width="24" height="24" fill="#4F46E5"/>
    <rect x="192" y="336" width="24" height="24" fill="#4F46E5"/>
    <rect x="240" y="336" width="24" height="24" fill="#4F46E5"/>
    <rect x="288" y="336" width="24" height="24" fill="#4F46E5"/>
    <rect x="336" y="336" width="24" height="24" fill="#4F46E5"/>
    
    <!-- Corner markers -->
    <rect x="0" y="0" width="72" height="72" fill="none" stroke="#4F46E5" stroke-width="6"/>
    <rect x="288" y="0" width="72" height="72" fill="none" stroke="#4F46E5" stroke-width="6"/>
    <rect x="0" y="288" width="72" height="72" fill="none" stroke="#4F46E5" stroke-width="6"/>
    
    <rect x="12" y="12" width="48" height="48" fill="#4F46E5"/>
    <rect x="300" y="12" width="48" height="48" fill="#4F46E5"/>
    <rect x="12" y="300" width="48" height="48" fill="#4F46E5"/>
  </g>
</svg>